<?xml version="1.0" encoding="UTF-8" standalone="no"?>
<svg
   xmlns:dc="http://purl.org/dc/elements/1.1/"
   xmlns:cc="http://creativecommons.org/ns#"
   xmlns:rdf="http://www.w3.org/1999/02/22-rdf-syntax-ns#"
   xmlns:svg="http://www.w3.org/2000/svg"
   xmlns="http://www.w3.org/2000/svg"
   xmlns:sodipodi="http://sodipodi.sourceforge.net/DTD/sodipodi-0.dtd"
   xmlns:inkscape="http://www.inkscape.org/namespaces/inkscape"
   version="1.1"
   id="svg2"
   xml:space="preserve"
   width="1333.3333"
   height="1333.3333"
   viewBox="0 0 1333.3333 1333.3333"
   sodipodi:docname="pin_sticker_logo.ai.svg"
   inkscape:version="1.0.1 (0767f8302a, 2020-10-17)"><metadata
     id="metadata8"><rdf:RDF><cc:Work
         rdf:about=""><dc:format>image/svg+xml</dc:format><dc:type
           rdf:resource="http://purl.org/dc/dcmitype/StillImage" /><dc:title></dc:title></cc:Work></rdf:RDF></metadata><defs
     id="defs6"><clipPath
       clipPathUnits="userSpaceOnUse"
       id="clipPath34"><path
         d="M 0,1000 H 1000 V 0 H 0 Z"
         id="path32" /></clipPath><clipPath
       clipPathUnits="userSpaceOnUse"
       id="clipPath54"><path
         d="m 517.587,647.026 h 56.525 V 485.438 h -56.525 z"
         id="path52" /></clipPath><clipPath
       clipPathUnits="userSpaceOnUse"
       id="clipPath70"><path
         d="m 501.041,650.328 h 30.802 V 483.337 h -30.802 z"
         id="path68" /></clipPath></defs><sodipodi:namedview
     pagecolor="#ffffff"
     bordercolor="#666666"
     borderopacity="1"
     objecttolerance="10"
     gridtolerance="10"
     guidetolerance="10"
     inkscape:pageopacity="0"
     inkscape:pageshadow="2"
     inkscape:window-width="1848"
     inkscape:window-height="1016"
     id="namedview4"
     showgrid="false"
     inkscape:zoom="0.65250004"
     inkscape:cx="666.66663"
     inkscape:cy="657.47348"
     inkscape:window-x="72"
     inkscape:window-y="27"
     inkscape:window-maximized="1"
     inkscape:current-layer="g10" /><g
     id="g10"
     inkscape:groupmode="layer"
     inkscape:label="nav 2"
     transform="matrix(1.3333333,0,0,-1.3333333,0,1333.3333)"><g
       id="g12"
       transform="translate(500.0013,996.7446)" /><g
       id="g28"
       inkscape:export-filename="/home/steve/Desktop/pins_logo.png"
       inkscape:export-xdpi="599.83813"
       inkscape:export-ydpi="599.83813"><g
         id="g30"
         clip-path="url(#clipPath34)"><g
           id="g40"
           transform="translate(574.1123,577.417)"><path
             d="m 0,0 c 0,32.859 -21.293,60.738 -50.438,69.805 0.456,-0.628 0.903,-1.284 1.348,-1.955 0.09,-0.138 0.18,-0.276 0.272,-0.416 0.455,-0.705 0.906,-1.427 1.347,-2.179 0.055,-0.092 0.108,-0.187 0.162,-0.278 0.411,-0.707 0.813,-1.435 1.209,-2.181 0.071,-0.132 0.141,-0.261 0.213,-0.395 0.418,-0.797 0.828,-1.62 1.231,-2.462 0.082,-0.172 0.164,-0.35 0.248,-0.524 0.408,-0.874 0.814,-1.763 1.207,-2.684 6.504,-15.236 10.084,-35.384 10.084,-56.731 0,-1.162 -0.018,-2.326 -0.049,-3.494 -0.012,-0.381 -0.031,-0.763 -0.045,-1.143 -0.029,-0.794 -0.06,-1.587 -0.103,-2.383 -0.024,-0.443 -0.053,-0.886 -0.082,-1.331 -0.045,-0.742 -0.098,-1.484 -0.155,-2.227 -0.037,-0.456 -0.076,-0.911 -0.113,-1.367 -0.068,-0.751 -0.139,-1.503 -0.219,-2.255 -0.043,-0.434 -0.088,-0.866 -0.135,-1.299 -0.091,-0.831 -0.195,-1.662 -0.298,-2.493 -0.043,-0.348 -0.084,-0.697 -0.131,-1.047 -0.157,-1.179 -0.323,-2.357 -0.504,-3.535 -0.016,-0.108 -0.035,-0.216 -0.053,-0.322 -0.166,-1.07 -0.34,-2.14 -0.525,-3.208 -0.069,-0.382 -0.139,-0.763 -0.207,-1.146 -0.143,-0.796 -0.287,-1.589 -0.44,-2.382 -0.086,-0.434 -0.172,-0.869 -0.256,-1.304 -0.15,-0.745 -0.298,-1.49 -0.457,-2.23 -0.093,-0.442 -0.183,-0.882 -0.281,-1.321 -0.164,-0.754 -0.33,-1.505 -0.502,-2.255 -0.094,-0.41 -0.185,-0.818 -0.281,-1.227 -0.199,-0.854 -0.406,-1.71 -0.615,-2.559 -0.071,-0.289 -0.139,-0.581 -0.211,-0.869 -0.285,-1.149 -0.58,-2.292 -0.883,-3.431 -0.039,-0.151 -0.08,-0.299 -0.121,-0.447 -0.26,-0.982 -0.528,-1.956 -0.799,-2.928 -0.098,-0.356 -0.201,-0.705 -0.303,-1.058 -0.217,-0.762 -0.433,-1.523 -0.654,-2.279 -0.121,-0.399 -0.236,-0.797 -0.357,-1.195 -0.213,-0.712 -0.428,-1.421 -0.647,-2.127 -0.119,-0.395 -0.24,-0.788 -0.365,-1.18 -0.225,-0.727 -0.455,-1.447 -0.686,-2.164 -0.113,-0.353 -0.226,-0.705 -0.34,-1.054 -0.273,-0.84 -0.55,-1.676 -0.828,-2.502 -0.07,-0.214 -0.14,-0.428 -0.211,-0.639 -0.353,-1.052 -0.713,-2.092 -1.072,-3.123 -0.062,-0.17 -0.123,-0.338 -0.182,-0.508 -0.298,-0.844 -0.593,-1.679 -0.894,-2.506 -0.115,-0.322 -0.233,-0.641 -0.35,-0.961 -0.246,-0.671 -0.488,-1.338 -0.734,-1.997 -0.129,-0.349 -0.26,-0.692 -0.389,-1.038 -0.238,-0.629 -0.474,-1.252 -0.711,-1.869 -0.129,-0.336 -0.258,-0.67 -0.386,-1.005 -0.247,-0.64 -0.495,-1.27 -0.743,-1.896 -0.113,-0.287 -0.224,-0.576 -0.337,-0.86 -0.299,-0.75 -0.594,-1.489 -0.891,-2.219 -0.061,-0.146 -0.119,-0.297 -0.178,-0.443 -0.359,-0.881 -0.715,-1.744 -1.068,-2.592 -0.078,-0.186 -0.153,-0.366 -0.233,-0.55 -0.269,-0.648 -0.539,-1.287 -0.804,-1.913 -0.121,-0.282 -0.239,-0.555 -0.358,-0.835 -0.224,-0.52 -0.445,-1.034 -0.666,-1.541 -0.125,-0.289 -0.25,-0.574 -0.375,-0.857 -0.209,-0.483 -0.418,-0.957 -0.625,-1.424 -0.123,-0.277 -0.246,-0.554 -0.367,-0.826 -0.062,-0.139 -0.125,-0.285 -0.189,-0.424 C -39.369,-75.701 0,-34.96 0,0"
             style="fill:#47c7ef;fill-opacity:1;fill-rule:nonzero;stroke:none"
             id="path42" /></g><g
           id="g44"
           transform="translate(502.4355,650.2725)"><path
             d="m 0,0 c -0.168,-0.017 -0.336,-0.017 -0.502,-0.04 -0.297,-0.041 -0.594,-0.112 -0.891,-0.181 -0.126,-0.031 -0.253,-0.047 -0.378,-0.081 -0.338,-0.091 -0.672,-0.211 -1.006,-0.338 -0.092,-0.033 -0.18,-0.055 -0.273,-0.09 -0.366,-0.149 -0.731,-0.327 -1.1,-0.515 -0.057,-0.029 -0.115,-0.051 -0.176,-0.082 -0.39,-0.208 -0.781,-0.444 -1.172,-0.697 -0.035,-0.023 -0.066,-0.039 -0.099,-0.061 -0.414,-0.271 -0.826,-0.57 -1.238,-0.894 -0.01,-0.007 -0.022,-0.014 -0.032,-0.022 -2.955,-2.329 -5.836,-5.938 -8.468,-10.647 -0.377,-0.673 -0.748,-1.369 -1.114,-2.086 v -0.002 c -0.361,-0.711 -0.717,-1.442 -1.066,-2.195 -0.004,-0.008 -0.01,-0.016 -0.014,-0.027 -0.338,-0.725 -0.668,-1.473 -0.994,-2.234 -0.018,-0.04 -0.033,-0.077 -0.051,-0.116 -0.31,-0.732 -0.613,-1.488 -0.914,-2.256 -0.029,-0.075 -0.058,-0.143 -0.088,-0.219 -0.287,-0.741 -0.568,-1.505 -0.843,-2.278 -0.038,-0.108 -0.081,-0.21 -0.118,-0.319 -0.267,-0.76 -0.527,-1.539 -0.783,-2.326 -0.043,-0.132 -0.088,-0.258 -0.131,-0.39 -0.244,-0.758 -0.478,-1.537 -0.709,-2.321 -0.05,-0.172 -0.105,-0.338 -0.158,-0.514 -0.226,-0.778 -0.441,-1.576 -0.656,-2.379 -0.053,-0.191 -0.106,-0.374 -0.156,-0.566 -0.202,-0.764 -0.393,-1.549 -0.582,-2.337 -0.059,-0.241 -0.121,-0.476 -0.18,-0.72 -0.182,-0.779 -0.354,-1.577 -0.525,-2.376 -0.057,-0.265 -0.118,-0.519 -0.174,-0.785 -0.16,-0.77 -0.309,-1.559 -0.459,-2.347 -0.059,-0.31 -0.123,-0.61 -0.182,-0.921 -0.129,-0.708 -0.248,-1.434 -0.367,-2.155 -0.068,-0.407 -0.143,-0.803 -0.209,-1.214 -0.109,-0.698 -0.209,-1.412 -0.311,-2.121 -0.064,-0.449 -0.136,-0.888 -0.197,-1.344 -0.098,-0.714 -0.182,-1.445 -0.269,-2.172 -0.057,-0.462 -0.118,-0.918 -0.17,-1.386 -0.08,-0.716 -0.147,-1.447 -0.219,-2.174 -0.047,-0.493 -0.104,-0.978 -0.149,-1.476 -0.064,-0.743 -0.117,-1.501 -0.173,-2.253 -0.037,-0.496 -0.082,-0.986 -0.114,-1.486 -0.052,-0.749 -0.088,-1.51 -0.127,-2.27 -0.027,-0.519 -0.062,-1.03 -0.086,-1.553 -0.039,-0.889 -0.062,-1.792 -0.087,-2.693 -0.012,-0.405 -0.032,-0.805 -0.041,-1.213 -0.028,-1.314 -0.043,-2.644 -0.043,-3.983 0,-1.714 0.035,-3.448 0.103,-5.197 0.024,-0.584 0.072,-1.18 0.102,-1.769 0.06,-1.173 0.117,-2.345 0.209,-3.534 0.054,-0.716 0.136,-1.446 0.203,-2.169 0.097,-1.079 0.187,-2.151 0.31,-3.241 0.086,-0.786 0.203,-1.585 0.305,-2.375 0.133,-1.046 0.256,-2.086 0.412,-3.142 0.123,-0.829 0.272,-1.676 0.408,-2.512 0.168,-1.035 0.326,-2.064 0.516,-3.108 0.154,-0.863 0.336,-1.737 0.506,-2.607 0.201,-1.037 0.398,-2.07 0.619,-3.12 0.189,-0.892 0.404,-1.796 0.607,-2.694 0.237,-1.042 0.465,-2.076 0.721,-3.128 0.225,-0.919 0.473,-1.854 0.713,-2.782 0.268,-1.046 0.531,-2.088 0.82,-3.143 0.256,-0.943 0.537,-1.898 0.811,-2.849 0.304,-1.055 0.603,-2.111 0.926,-3.176 0.289,-0.964 0.603,-1.939 0.908,-2.91 0.338,-1.069 0.672,-2.137 1.029,-3.215 0.322,-0.984 0.668,-1.977 1.01,-2.968 0.369,-1.081 0.74,-2.162 1.129,-3.252 0.357,-1.003 0.734,-2.013 1.107,-3.023 0.408,-1.096 0.813,-2.191 1.233,-3.294 0.392,-1.019 0.8,-2.046 1.207,-3.072 0.439,-1.11 0.88,-2.221 1.336,-3.341 0.423,-1.034 0.865,-2.078 1.304,-3.12 0.473,-1.124 0.948,-2.25 1.442,-3.383 0.455,-1.051 0.927,-2.111 1.4,-3.168 0.51,-1.141 1.018,-2.282 1.545,-3.43 0.486,-1.066 0.99,-2.137 1.492,-3.208 0.336,-0.716 0.68,-1.433 1.024,-2.151 h 6.302 c 0.014,0.033 0.027,0.063 0.047,0.097 0.08,0.18 0.174,0.373 0.259,0.561 0.161,0.338 0.319,0.675 0.485,1.039 0.103,0.213 0.207,0.443 0.31,0.666 0.166,0.356 0.332,0.715 0.502,1.091 0.114,0.247 0.233,0.508 0.348,0.763 0.168,0.374 0.338,0.751 0.516,1.144 0.127,0.284 0.259,0.58 0.388,0.873 0.17,0.382 0.342,0.766 0.516,1.163 0.144,0.325 0.291,0.659 0.437,0.994 0.17,0.392 0.344,0.786 0.518,1.189 0.152,0.352 0.306,0.713 0.464,1.075 0.176,0.412 0.353,0.832 0.533,1.256 0.156,0.375 0.318,0.753 0.477,1.135 0.183,0.43 0.363,0.868 0.547,1.309 0.166,0.399 0.332,0.801 0.498,1.209 0.185,0.451 0.369,0.909 0.558,1.371 0.166,0.413 0.334,0.827 0.502,1.25 0.192,0.475 0.383,0.96 0.574,1.443 0.17,0.432 0.338,0.86 0.508,1.296 0.195,0.499 0.389,1.008 0.586,1.514 0.168,0.441 0.336,0.878 0.508,1.326 0.197,0.523 0.396,1.058 0.596,1.59 0.168,0.45 0.334,0.894 0.502,1.352 0.205,0.55 0.408,1.114 0.609,1.671 0.164,0.455 0.328,0.902 0.492,1.359 0.219,0.613 0.436,1.239 0.652,1.863 0.145,0.416 0.293,0.826 0.438,1.246 0.303,0.878 0.603,1.768 0.904,2.663 0.1,0.298 0.199,0.593 0.297,0.895 0.315,0.945 0.625,1.899 0.934,2.864 0.131,0.404 0.256,0.817 0.384,1.227 0.221,0.698 0.44,1.392 0.655,2.098 0.144,0.469 0.283,0.945 0.426,1.418 0.195,0.655 0.392,1.306 0.584,1.966 0.146,0.5 0.289,1.009 0.431,1.514 0.186,0.638 0.367,1.277 0.545,1.921 0.145,0.523 0.285,1.047 0.426,1.573 0.174,0.636 0.344,1.272 0.51,1.913 0.138,0.534 0.275,1.073 0.41,1.609 0.162,0.638 0.322,1.277 0.478,1.918 0.135,0.542 0.262,1.087 0.391,1.632 0.152,0.643 0.303,1.285 0.449,1.93 0.125,0.55 0.244,1.099 0.365,1.653 0.141,0.643 0.28,1.287 0.414,1.934 0.116,0.554 0.229,1.108 0.338,1.666 0.131,0.647 0.256,1.299 0.379,1.947 0.104,0.555 0.209,1.11 0.307,1.667 0.117,0.656 0.23,1.313 0.342,1.971 0.093,0.549 0.185,1.099 0.271,1.649 0.106,0.666 0.205,1.332 0.303,1.998 0.076,0.545 0.158,1.089 0.23,1.631 0.092,0.673 0.176,1.347 0.258,2.021 0.067,0.536 0.135,1.073 0.194,1.609 0.078,0.686 0.142,1.372 0.211,2.058 0.052,0.52 0.107,1.041 0.15,1.559 0.06,0.715 0.111,1.429 0.164,2.142 0.031,0.486 0.072,0.974 0.102,1.46 0.048,0.796 0.08,1.587 0.111,2.378 0.015,0.398 0.039,0.8 0.055,1.197 0.035,1.19 0.054,2.376 0.054,3.555 0,42.906 -15.054,72.86 -28.565,72.907 -0.018,0 -0.041,0.001 -0.065,0.001 C 0.52,0.052 0.26,0.021 0,0"
             style="fill:#76cfe5;fill-opacity:1;fill-rule:nonzero;stroke:none"
             id="path46" /></g><g
           id="g48"><g
             id="g50" /><g
             id="g62"><g
               clip-path="url(#clipPath54)"
               opacity="0.639999"
               id="g60"><g
                 transform="translate(523.6748,647.0264)"
                 id="g58"><path
                   d="m 0,0 c 0.365,-0.502 0.723,-1.035 1.082,-1.569 26.83,-10.41 45.979,-37.077 45.979,-68.235 0,-31.419 -31.799,-67.509 -50.694,-86.171 -0.078,-0.18 -0.154,-0.361 -0.232,-0.542 -0.225,-0.519 -0.446,-1.037 -0.666,-1.543 -0.125,-0.289 -0.25,-0.572 -0.375,-0.857 -0.209,-0.481 -0.418,-0.955 -0.625,-1.424 -0.123,-0.276 -0.246,-0.553 -0.367,-0.826 -0.063,-0.138 -0.125,-0.283 -0.19,-0.421 17.156,16.084 56.526,56.826 56.526,91.784 C 50.438,-36.942 29.145,-9.064 0,0"
                   style="fill:#1b75bc;fill-opacity:1;fill-rule:nonzero;stroke:none"
                   id="path56" /></g></g></g></g><g
           id="g64"><g
             id="g66" /><g
             id="g78"><g
               clip-path="url(#clipPath70)"
               opacity="0.490005"
               id="g76"><g
                 transform="translate(503.2773,650.3252)"
                 id="g74"><path
                   d="M 0,0 C -0.018,0 -0.041,0.003 -0.064,0.003 -0.322,0 -0.582,-0.03 -0.842,-0.052 -1.01,-0.066 -1.178,-0.066 -1.344,-0.091 -1.641,-0.133 -1.938,-0.203 -2.234,-0.272 h -0.002 c 12.909,-2.995 26.413,-31.996 26.413,-72.636 0,-1.178 -0.022,-2.363 -0.059,-3.554 -0.014,-0.396 -0.035,-0.799 -0.051,-1.198 -0.033,-0.791 -0.064,-1.582 -0.111,-2.378 -0.031,-0.485 -0.07,-0.972 -0.103,-1.459 -0.053,-0.714 -0.102,-1.426 -0.165,-2.141 -0.042,-0.519 -0.097,-1.041 -0.148,-1.56 -0.068,-0.687 -0.135,-1.37 -0.213,-2.058 -0.058,-0.536 -0.127,-1.073 -0.193,-1.609 -0.084,-0.673 -0.166,-1.346 -0.256,-2.019 -0.072,-0.545 -0.154,-1.088 -0.232,-1.633 -0.098,-0.667 -0.198,-1.332 -0.303,-1.998 -0.086,-0.549 -0.176,-1.099 -0.27,-1.649 -0.111,-0.655 -0.224,-1.315 -0.344,-1.972 -0.099,-0.556 -0.203,-1.111 -0.306,-1.664 -0.123,-0.651 -0.248,-1.301 -0.377,-1.95 -0.109,-0.556 -0.223,-1.11 -0.34,-1.666 -0.133,-0.646 -0.271,-1.29 -0.414,-1.933 -0.119,-0.551 -0.24,-1.104 -0.365,-1.654 -0.145,-0.643 -0.295,-1.286 -0.448,-1.928 -0.13,-0.546 -0.257,-1.09 -0.39,-1.633 -0.158,-0.642 -0.317,-1.28 -0.481,-1.918 -0.134,-0.537 -0.271,-1.075 -0.41,-1.61 -0.166,-0.638 -0.336,-1.275 -0.508,-1.913 -0.14,-0.523 -0.283,-1.049 -0.427,-1.57 -0.178,-0.644 -0.36,-1.284 -0.543,-1.923 -0.145,-0.506 -0.287,-1.013 -0.432,-1.515 -0.191,-0.659 -0.389,-1.31 -0.586,-1.966 -0.142,-0.472 -0.281,-0.947 -0.424,-1.417 -0.216,-0.706 -0.437,-1.401 -0.654,-2.098 -0.131,-0.409 -0.256,-0.821 -0.385,-1.228 -0.308,-0.963 -0.621,-1.917 -0.935,-2.864 -0.098,-0.299 -0.198,-0.596 -0.297,-0.893 -0.301,-0.896 -0.6,-1.787 -0.903,-2.664 -0.146,-0.42 -0.292,-0.831 -0.439,-1.246 -0.215,-0.624 -0.434,-1.249 -0.652,-1.863 -0.164,-0.458 -0.326,-0.904 -0.491,-1.356 -0.203,-0.561 -0.408,-1.122 -0.609,-1.672 -0.168,-0.457 -0.334,-0.905 -0.502,-1.354 -0.201,-0.533 -0.398,-1.067 -0.596,-1.591 -0.173,-0.447 -0.341,-0.884 -0.509,-1.325 -0.196,-0.506 -0.389,-1.014 -0.584,-1.513 -0.173,-0.437 -0.341,-0.865 -0.511,-1.295 -0.191,-0.485 -0.383,-0.97 -0.572,-1.446 -0.168,-0.421 -0.338,-0.837 -0.504,-1.25 -0.188,-0.461 -0.371,-0.92 -0.559,-1.37 -0.166,-0.409 -0.334,-0.81 -0.498,-1.21 -0.183,-0.44 -0.363,-0.877 -0.545,-1.306 -0.162,-0.384 -0.32,-0.762 -0.478,-1.136 -0.18,-0.425 -0.356,-0.843 -0.534,-1.257 -0.156,-0.361 -0.308,-0.722 -0.46,-1.074 -0.176,-0.404 -0.348,-0.799 -0.52,-1.189 -0.145,-0.336 -0.293,-0.67 -0.436,-0.996 -0.175,-0.395 -0.345,-0.78 -0.515,-1.163 -0.131,-0.292 -0.262,-0.589 -0.389,-0.873 -0.178,-0.391 -0.347,-0.768 -0.517,-1.143 -0.116,-0.255 -0.233,-0.515 -0.348,-0.763 -0.17,-0.376 -0.336,-0.735 -0.502,-1.092 -0.102,-0.223 -0.207,-0.453 -0.309,-0.666 -0.166,-0.361 -0.326,-0.701 -0.484,-1.039 -0.086,-0.185 -0.18,-0.38 -0.262,-0.56 -0.017,-0.034 -0.031,-0.063 -0.045,-0.097 h 4.389 c 0.014,0.034 0.027,0.063 0.047,0.097 0.08,0.18 0.174,0.375 0.26,0.56 0.16,0.338 0.318,0.678 0.484,1.039 0.104,0.213 0.207,0.443 0.311,0.666 0.166,0.357 0.332,0.716 0.502,1.092 0.113,0.248 0.232,0.508 0.347,0.763 0.168,0.375 0.338,0.752 0.516,1.143 0.127,0.284 0.26,0.581 0.389,0.873 0.169,0.383 0.341,0.768 0.515,1.163 0.145,0.326 0.291,0.66 0.438,0.996 0.17,0.39 0.343,0.785 0.517,1.189 0.153,0.352 0.306,0.713 0.464,1.074 0.176,0.414 0.354,0.832 0.533,1.257 0.157,0.374 0.319,0.752 0.477,1.136 0.183,0.429 0.363,0.866 0.547,1.306 0.166,0.4 0.332,0.801 0.498,1.21 0.185,0.45 0.369,0.909 0.558,1.37 0.166,0.413 0.334,0.829 0.502,1.25 0.192,0.476 0.383,0.961 0.575,1.446 0.169,0.43 0.337,0.858 0.507,1.295 0.196,0.499 0.389,1.007 0.586,1.513 0.168,0.441 0.336,0.878 0.508,1.325 0.197,0.524 0.397,1.058 0.596,1.591 0.168,0.449 0.334,0.897 0.502,1.354 0.205,0.55 0.408,1.111 0.609,1.672 0.164,0.452 0.328,0.898 0.492,1.356 0.219,0.614 0.436,1.239 0.653,1.863 0.144,0.415 0.293,0.826 0.437,1.246 0.303,0.877 0.604,1.768 0.904,2.664 0.1,0.297 0.2,0.594 0.297,0.893 0.315,0.947 0.625,1.901 0.934,2.864 0.131,0.407 0.256,0.819 0.385,1.228 0.22,0.697 0.439,1.392 0.654,2.098 0.145,0.47 0.283,0.945 0.426,1.417 0.195,0.656 0.392,1.307 0.584,1.966 0.146,0.502 0.289,1.009 0.431,1.515 0.186,0.639 0.368,1.279 0.545,1.923 0.145,0.521 0.285,1.047 0.426,1.57 0.174,0.638 0.344,1.275 0.51,1.913 0.139,0.535 0.275,1.073 0.41,1.61 0.162,0.638 0.322,1.276 0.479,1.918 0.134,0.543 0.261,1.087 0.39,1.633 0.153,0.642 0.303,1.285 0.449,1.928 0.125,0.55 0.245,1.103 0.366,1.654 0.14,0.643 0.279,1.287 0.414,1.933 0.115,0.556 0.228,1.11 0.338,1.666 0.13,0.649 0.255,1.299 0.378,1.95 0.104,0.553 0.209,1.108 0.307,1.664 0.117,0.657 0.231,1.317 0.342,1.972 0.094,0.55 0.185,1.1 0.271,1.649 0.106,0.666 0.205,1.331 0.303,1.998 0.076,0.545 0.158,1.088 0.231,1.633 0.091,0.673 0.175,1.346 0.257,2.019 0.067,0.536 0.135,1.073 0.194,1.609 0.078,0.688 0.142,1.371 0.211,2.058 0.052,0.519 0.107,1.041 0.15,1.56 0.061,0.715 0.111,1.427 0.164,2.141 0.031,0.487 0.072,0.974 0.102,1.459 0.049,0.796 0.08,1.587 0.111,2.378 0.016,0.399 0.039,0.802 0.055,1.198 0.035,1.191 0.054,2.376 0.054,3.554 C 28.565,-30.001 13.511,-0.048 0,0"
                   style="fill:#28aae1;fill-opacity:1;fill-rule:nonzero;stroke:none"
                   id="path72" /></g></g></g></g><g
           id="g80"
           transform="translate(506.4004,483.3369)"><path
             d="M 0,0 C 0.014,0.029 0.029,0.064 0.047,0.097 0.027,0.063 0.014,0.032 0,0"
             style="fill:#00aeef;fill-opacity:1;fill-rule:nonzero;stroke:none"
             id="path82" /></g><g
           id="g84"
           transform="translate(500.0767,483.3369)"><path
             d="M 0,0 H 0.021 C -0.322,0.718 -0.666,1.435 -1.002,2.15 -0.664,1.431 -0.346,0.722 0,0"
             style="fill:#00aeef;fill-opacity:1;fill-rule:nonzero;stroke:none"
             id="path86" /></g><g
           id="g88"
           transform="translate(486.4263,491.1123)"><path
             d="m 0,0 c -0.617,1.416 -1.207,2.823 -1.797,4.229 -0.33,0.785 -0.672,1.575 -0.992,2.358 -0.705,1.713 -1.379,3.415 -2.043,5.111 -0.18,0.46 -0.373,0.929 -0.549,1.389 -0.832,2.153 -1.627,4.291 -2.392,6.416 -0.202,0.56 -0.385,1.115 -0.582,1.675 -0.549,1.554 -1.094,3.104 -1.606,4.643 -0.262,0.783 -0.5,1.553 -0.752,2.33 -0.422,1.304 -0.844,2.611 -1.24,3.906 -0.26,0.846 -0.5,1.685 -0.748,2.527 -0.356,1.207 -0.711,2.417 -1.043,3.612 -0.242,0.872 -0.469,1.738 -0.701,2.604 -0.307,1.154 -0.61,2.309 -0.895,3.455 -0.219,0.874 -0.424,1.744 -0.631,2.614 -0.265,1.123 -0.523,2.243 -0.765,3.356 -0.192,0.867 -0.373,1.731 -0.551,2.592 -0.229,1.106 -0.443,2.204 -0.649,3.297 -0.162,0.85 -0.318,1.699 -0.462,2.544 -0.194,1.092 -0.368,2.179 -0.538,3.261 -0.128,0.828 -0.259,1.655 -0.375,2.475 -0.156,1.097 -0.291,2.183 -0.423,3.267 -0.098,0.788 -0.202,1.58 -0.286,2.363 -0.121,1.127 -0.218,2.239 -0.316,3.353 -0.064,0.727 -0.139,1.456 -0.189,2.177 -0.092,1.22 -0.153,2.427 -0.211,3.634 -0.032,0.596 -0.075,1.2 -0.096,1.793 -0.068,1.79 -0.106,3.566 -0.106,5.324 0,21.36 3.586,41.516 10.098,56.758 0.391,0.916 0.795,1.803 1.203,2.673 0.088,0.187 0.176,0.375 0.264,0.56 0.398,0.833 0.807,1.648 1.221,2.437 0.078,0.151 0.158,0.295 0.236,0.442 0.387,0.725 0.781,1.433 1.182,2.12 0.06,0.109 0.125,0.221 0.187,0.329 0.436,0.74 0.883,1.452 1.332,2.147 0.1,0.155 0.203,0.307 0.303,0.46 0.441,0.665 0.887,1.315 1.34,1.936 -0.264,-0.081 -0.52,-0.175 -0.78,-0.258 -26.587,-12.045 -45.199,-39.39 -45.199,-71.121 0,-25.866 17.401,-56.002 51.742,-89.725 -0.334,0.752 -0.668,1.502 -1,2.254 C 0.793,-1.788 0.387,-0.892 0,0"
             style="fill:#47c7ef;fill-opacity:1;fill-rule:nonzero;stroke:none"
             id="path90" /></g><g
           id="g92"
           transform="translate(517.5869,485.6289)"><path
             d="m 0,0 c 0.064,0.139 0.127,0.285 0.189,0.424 0.122,0.272 0.245,0.549 0.368,0.826 0.207,0.467 0.416,0.941 0.625,1.424 0.125,0.283 0.25,0.568 0.375,0.857 0.22,0.507 0.441,1.021 0.666,1.541 0.119,0.281 0.236,0.553 0.357,0.835 0.266,0.626 0.535,1.265 0.805,1.913 0.08,0.184 0.154,0.364 0.232,0.55 0.354,0.848 0.709,1.711 1.069,2.592 0.058,0.146 0.117,0.297 0.177,0.443 0.297,0.73 0.592,1.469 0.891,2.219 0.113,0.284 0.225,0.573 0.338,0.86 0.248,0.626 0.496,1.256 0.742,1.896 0.129,0.335 0.258,0.669 0.387,1.005 0.236,0.617 0.472,1.24 0.711,1.869 0.129,0.346 0.259,0.689 0.388,1.038 0.246,0.659 0.489,1.326 0.735,1.997 0.117,0.32 0.234,0.639 0.349,0.961 0.301,0.827 0.596,1.662 0.895,2.506 0.058,0.17 0.119,0.338 0.181,0.508 0.36,1.031 0.719,2.071 1.073,3.123 0.07,0.211 0.14,0.426 0.211,0.639 0.277,0.827 0.554,1.662 0.828,2.502 0.113,0.349 0.226,0.701 0.34,1.054 0.23,0.717 0.461,1.438 0.685,2.164 0.125,0.392 0.246,0.785 0.365,1.18 0.219,0.706 0.434,1.415 0.647,2.127 0.121,0.398 0.236,0.796 0.357,1.195 0.221,0.756 0.438,1.517 0.655,2.279 0.101,0.353 0.205,0.702 0.302,1.058 0.272,0.972 0.539,1.946 0.799,2.928 0.041,0.148 0.082,0.297 0.121,0.447 0.303,1.139 0.598,2.282 0.883,3.431 0.072,0.288 0.141,0.58 0.211,0.869 0.209,0.849 0.416,1.705 0.615,2.559 0.096,0.41 0.188,0.817 0.282,1.227 0.171,0.75 0.337,1.501 0.501,2.255 0.098,0.439 0.188,0.879 0.282,1.321 0.158,0.74 0.306,1.485 0.457,2.231 0.084,0.434 0.17,0.869 0.256,1.303 0.152,0.793 0.296,1.586 0.439,2.382 0.068,0.383 0.139,0.764 0.207,1.147 0.186,1.067 0.359,2.137 0.525,3.207 0.018,0.106 0.038,0.214 0.053,0.322 0.182,1.178 0.348,2.356 0.504,3.535 0.047,0.35 0.088,0.699 0.131,1.047 0.104,0.831 0.207,1.662 0.299,2.493 0.047,0.433 0.092,0.865 0.135,1.299 0.08,0.752 0.15,1.504 0.218,2.255 0.037,0.456 0.077,0.911 0.114,1.367 0.056,0.743 0.109,1.485 0.154,2.228 0.029,0.444 0.059,0.887 0.082,1.331 0.043,0.795 0.074,1.588 0.103,2.382 0.014,0.38 0.034,0.762 0.045,1.143 0.032,1.168 0.049,2.332 0.049,3.494 0,21.347 -3.58,41.495 -10.084,56.732 -0.392,0.92 -0.799,1.809 -1.207,2.683 -0.084,0.174 -0.166,0.352 -0.248,0.525 -0.402,0.841 -0.812,1.664 -1.23,2.461 -0.073,0.134 -0.143,0.263 -0.213,0.395 -0.397,0.746 -0.799,1.474 -1.209,2.181 -0.055,0.091 -0.108,0.186 -0.162,0.278 -0.442,0.752 -0.893,1.474 -1.348,2.179 -0.092,0.14 -0.182,0.278 -0.271,0.416 -0.446,0.671 -0.893,1.327 -1.348,1.955 C 35.232,152.526 56.525,124.647 56.525,91.788 56.525,56.828 17.156,16.087 0,0 m -0.51,23.062 c -0.199,-0.533 -0.398,-1.068 -0.595,-1.59 -0.172,-0.449 -0.34,-0.885 -0.508,-1.326 -0.198,-0.506 -0.391,-1.015 -0.586,-1.514 -0.17,-0.437 -0.338,-0.864 -0.508,-1.296 -0.191,-0.483 -0.383,-0.969 -0.574,-1.443 -0.168,-0.423 -0.336,-0.837 -0.502,-1.25 -0.19,-0.462 -0.373,-0.92 -0.559,-1.372 C -4.508,12.863 -4.674,12.462 -4.84,12.063 -5.023,11.621 -5.203,11.184 -5.387,10.754 -5.545,10.371 -5.707,9.993 -5.863,9.618 -6.043,9.194 -6.221,8.774 -6.396,8.362 -6.555,8.001 -6.708,7.64 -6.86,7.287 -7.034,6.885 -7.208,6.49 -7.378,6.099 -7.524,5.764 -7.671,5.43 -7.815,5.104 -7.989,4.708 -8.161,4.323 -8.331,3.941 -8.46,3.648 -8.593,3.353 -8.72,3.068 -8.897,2.676 -9.067,2.299 -9.235,1.925 -9.351,1.67 -9.47,1.408 -9.583,1.161 -9.753,0.785 -9.919,0.427 -10.085,0.07 c -0.103,-0.222 -0.207,-0.453 -0.311,-0.666 -0.166,-0.363 -0.324,-0.701 -0.484,-1.039 -0.086,-0.187 -0.18,-0.381 -0.26,-0.56 -0.017,-0.033 -0.033,-0.068 -0.047,-0.097 h -6.302 -0.021 c -0.346,0.722 -0.664,1.431 -1.002,2.15 -0.502,1.072 -1.006,2.143 -1.492,3.208 -0.528,1.149 -1.036,2.289 -1.545,3.43 -0.473,1.058 -0.946,2.117 -1.401,3.169 -0.494,1.133 -0.968,2.259 -1.441,3.383 -0.44,1.042 -0.881,2.086 -1.305,3.12 -0.455,1.119 -0.896,2.23 -1.336,3.341 -0.406,1.025 -0.814,2.053 -1.207,3.071 -0.42,1.104 -0.824,2.198 -1.232,3.295 -0.373,1.01 -0.75,2.02 -1.108,3.022 -0.388,1.09 -0.759,2.171 -1.129,3.252 -0.341,0.992 -0.687,1.985 -1.009,2.968 -0.358,1.078 -0.692,2.147 -1.03,3.216 -0.304,0.971 -0.619,1.945 -0.908,2.909 -0.322,1.066 -0.621,2.121 -0.926,3.177 -0.273,0.95 -0.554,1.905 -0.81,2.849 -0.289,1.054 -0.553,2.096 -0.82,3.142 -0.241,0.929 -0.489,1.863 -0.713,2.782 -0.256,1.052 -0.485,2.086 -0.721,3.128 -0.203,0.899 -0.418,1.803 -0.607,2.695 -0.221,1.049 -0.418,2.083 -0.62,3.12 -0.17,0.87 -0.351,1.744 -0.505,2.606 -0.19,1.044 -0.348,2.073 -0.516,3.109 -0.137,0.836 -0.285,1.682 -0.408,2.511 -0.157,1.057 -0.28,2.097 -0.412,3.143 -0.102,0.79 -0.219,1.589 -0.305,2.375 -0.123,1.09 -0.213,2.162 -0.311,3.24 -0.066,0.724 -0.148,1.453 -0.203,2.169 -0.092,1.19 -0.148,2.361 -0.209,3.534 -0.029,0.589 -0.078,1.186 -0.101,1.77 -0.069,1.749 -0.104,3.482 -0.104,5.196 0,1.34 0.016,2.67 0.043,3.983 0.01,0.409 0.029,0.808 0.041,1.213 0.026,0.902 0.049,1.804 0.088,2.694 0.024,0.522 0.059,1.034 0.086,1.552 0.039,0.76 0.074,1.522 0.127,2.271 0.031,0.5 0.076,0.989 0.113,1.485 0.057,0.752 0.11,1.51 0.174,2.253 0.045,0.498 0.102,0.984 0.149,1.477 0.072,0.726 0.138,1.458 0.218,2.174 0.053,0.467 0.114,0.923 0.17,1.385 0.088,0.728 0.172,1.458 0.27,2.172 0.06,0.456 0.133,0.896 0.197,1.345 0.102,0.709 0.201,1.423 0.311,2.12 0.066,0.411 0.14,0.808 0.209,1.215 0.119,0.721 0.238,1.446 0.367,2.154 0.058,0.312 0.123,0.612 0.181,0.921 0.151,0.788 0.299,1.577 0.459,2.348 0.057,0.265 0.118,0.519 0.174,0.785 0.172,0.799 0.344,1.597 0.526,2.376 0.058,0.243 0.121,0.478 0.179,0.72 0.19,0.788 0.381,1.573 0.582,2.337 0.051,0.192 0.104,0.375 0.157,0.566 0.214,0.803 0.429,1.601 0.656,2.379 0.052,0.176 0.107,0.342 0.158,0.514 0.23,0.784 0.465,1.563 0.709,2.321 0.043,0.132 0.088,0.258 0.131,0.39 0.256,0.787 0.515,1.566 0.783,2.326 0.037,0.108 0.08,0.211 0.117,0.319 0.276,0.772 0.557,1.536 0.844,2.277 0.029,0.077 0.059,0.145 0.088,0.219 0.301,0.769 0.603,1.525 0.914,2.257 0.017,0.039 0.033,0.075 0.051,0.115 0.326,0.762 0.656,1.51 0.994,2.235 0.004,0.01 0.01,0.018 0.013,0.027 0.35,0.753 0.706,1.483 1.067,2.193 v 0.003 c 0.365,0.718 0.736,1.413 1.113,2.086 2.633,4.71 5.514,8.319 8.469,10.648 0.01,0.007 0.021,0.014 0.031,0.022 0.412,0.323 0.824,0.622 1.238,0.894 0.034,0.021 0.065,0.038 0.1,0.06 0.391,0.254 0.781,0.489 1.172,0.697 0.06,0.032 0.119,0.053 0.176,0.082 0.369,0.189 0.734,0.367 1.099,0.515 0.094,0.035 0.182,0.058 0.274,0.091 0.334,0.127 0.668,0.247 1.006,0.338 0.125,0.034 0.252,0.05 0.378,0.081 0.297,0.068 0.594,0.14 0.891,0.181 0.166,0.023 0.334,0.023 0.502,0.04 0.242,0.018 0.484,0.051 0.726,0.055 0.018,0 0.033,0 0.051,-0.003 h 0.004 c 0.019,0 0.037,-0.001 0.058,-0.001 h 0.002 c 13.511,-0.047 28.566,-30.001 28.566,-72.907 0,-1.179 -0.02,-2.364 -0.055,-3.555 -0.015,-0.396 -0.039,-0.798 -0.055,-1.197 -0.031,-0.791 -0.062,-1.582 -0.111,-2.378 -0.029,-0.485 -0.07,-0.973 -0.101,-1.46 -0.053,-0.713 -0.104,-1.427 -0.164,-2.141 -0.043,-0.519 -0.098,-1.039 -0.151,-1.56 -0.068,-0.685 -0.133,-1.371 -0.211,-2.058 -0.058,-0.536 -0.127,-1.073 -0.193,-1.609 -0.082,-0.674 -0.166,-1.348 -0.258,-2.02 -0.072,-0.542 -0.154,-1.086 -0.23,-1.631 -0.098,-0.666 -0.198,-1.332 -0.303,-1.998 -0.086,-0.55 -0.178,-1.1 -0.272,-1.65 -0.111,-0.657 -0.224,-1.314 -0.341,-1.97 -0.098,-0.557 -0.204,-1.113 -0.307,-1.667 -0.123,-0.649 -0.248,-1.3 -0.379,-1.948 C 11.016,62.389 10.902,61.835 10.787,61.28 10.652,60.634 10.514,59.989 10.373,59.347 10.252,58.793 10.133,58.243 10.008,57.693 9.861,57.049 9.711,56.406 9.559,55.764 9.43,55.219 9.303,54.674 9.168,54.132 9.012,53.49 8.852,52.852 8.689,52.214 8.555,51.678 8.418,51.139 8.279,50.604 8.113,49.964 7.943,49.327 7.77,48.691 7.629,48.166 7.488,47.642 7.344,47.118 7.166,46.475 6.984,45.836 6.799,45.197 6.656,44.692 6.514,44.184 6.367,43.684 6.176,43.023 5.979,42.372 5.783,41.718 5.641,41.244 5.502,40.769 5.357,40.3 5.143,39.594 4.924,38.899 4.703,38.201 4.574,37.792 4.449,37.379 4.318,36.975 4.01,36.01 3.699,35.056 3.385,34.11 3.287,33.809 3.188,33.514 3.088,33.216 2.787,32.32 2.486,31.431 2.184,30.553 2.039,30.133 1.891,29.723 1.746,29.307 1.529,28.683 1.313,28.057 1.094,27.443 0.93,26.986 0.766,26.539 0.602,26.085 0.4,25.527 0.197,24.964 -0.008,24.413 -0.176,23.956 -0.342,23.512 -0.51,23.062 m -84.83,68.726 c 0,32.648 20.99,60.343 49.828,69.605 0.26,0.083 0.515,0.176 0.779,0.257 -0.453,-0.621 -0.898,-1.27 -1.34,-1.935 -0.099,-0.153 -0.203,-0.306 -0.302,-0.46 -0.45,-0.695 -0.897,-1.407 -1.333,-2.148 -0.062,-0.108 -0.126,-0.219 -0.187,-0.329 -0.4,-0.686 -0.795,-1.394 -1.182,-2.12 -0.078,-0.146 -0.158,-0.291 -0.236,-0.441 -0.414,-0.789 -0.822,-1.605 -1.221,-2.438 -0.088,-0.184 -0.175,-0.373 -0.263,-0.559 -0.409,-0.87 -0.813,-1.757 -1.203,-2.673 -6.512,-15.242 -10.098,-35.399 -10.098,-56.759 0,-1.758 0.037,-3.533 0.105,-5.323 0.022,-0.594 0.065,-1.197 0.096,-1.793 0.059,-1.207 0.119,-2.414 0.211,-3.635 0.051,-0.721 0.125,-1.45 0.189,-2.177 0.098,-1.114 0.196,-2.225 0.317,-3.352 0.084,-0.783 0.187,-1.575 0.285,-2.363 0.133,-1.084 0.268,-2.17 0.424,-3.268 0.115,-0.819 0.246,-1.647 0.375,-2.475 0.17,-1.082 0.344,-2.169 0.537,-3.26 0.144,-0.845 0.301,-1.695 0.463,-2.544 0.205,-1.094 0.42,-2.192 0.648,-3.297 0.178,-0.862 0.36,-1.726 0.551,-2.593 0.242,-1.112 0.5,-2.232 0.766,-3.355 0.207,-0.871 0.412,-1.741 0.631,-2.615 0.285,-1.145 0.587,-2.3 0.894,-3.455 0.232,-0.866 0.459,-1.731 0.701,-2.603 0.332,-1.196 0.688,-2.406 1.043,-3.613 0.248,-0.841 0.488,-1.68 0.748,-2.527 0.397,-1.295 0.819,-2.602 1.24,-3.905 0.252,-0.778 0.491,-1.548 0.752,-2.33 0.512,-1.539 1.057,-3.089 1.606,-4.644 0.197,-0.559 0.381,-1.114 0.582,-1.675 0.766,-2.125 1.56,-4.262 2.392,-6.416 0.176,-0.46 0.37,-0.928 0.549,-1.388 0.664,-1.697 1.338,-3.399 2.043,-5.112 0.321,-0.783 0.662,-1.573 0.992,-2.358 0.59,-1.405 1.18,-2.813 1.797,-4.229 0.387,-0.891 0.793,-1.788 1.192,-2.682 0.332,-0.752 0.666,-1.502 1,-2.254 0.109,-0.242 0.213,-0.484 0.324,-0.732 -37.627,34.801 -56.695,65.727 -56.695,91.973 m 70.175,82.227 c -0.018,-0.005 -0.043,-0.007 -0.063,-0.011 0.02,0.004 0.043,0.006 0.063,0.011 m 0.523,0.076 h -0.005 c -0.012,0 -0.024,-0.001 -0.036,-0.001 0.014,0 0.028,0.001 0.041,0.001 m 0.348,0.013 c -0.018,0 -0.033,-0.004 -0.053,-0.006 h -0.002 c 0.016,0 0.037,0.006 0.055,0.006 m 0.154,-0.004 c -0.035,0 -0.074,0.003 -0.111,0.003 -0.004,0 -0.008,0.001 -0.016,0.001 -0.033,0.002 -0.074,0.005 -0.093,0.002 -0.016,0 -0.036,0.001 -0.049,0.001 -44.16,0 -80.086,-36.929 -80.086,-82.319 0,-29.891 21.33,-64.314 63.397,-102.317 0.836,-0.756 1.91,-1.172 3.021,-1.172 h 7.725 12.013 7.595 c 1.115,0 2.189,0.416 3.023,1.172 19.063,17.219 63.399,61.66 63.399,102.317 0,45.271 -35.793,82.16 -79.818,82.312"
             style="fill:#414142;fill-opacity:1;fill-rule:nonzero;stroke:none"
             id="path94" /></g><g
           id="g96"
           transform="translate(510.4766,475.2773)"><path
             d="m 0,0 v -14.51 c -2.17,0.182 -4.605,0.285 -7.188,0.285 -2.585,0 -5.019,-0.103 -7.19,-0.285 V 0 h -9.12 v -16.986 -0.721 c -0.023,-0.061 -0.054,-0.123 -0.054,-0.184 v -0.002 h -0.037 v -16.683 h 0.029 V -34.6 h 0.014 c 0.009,-0.187 0.129,-0.373 0.351,-0.55 1.504,-1.26 8.069,-2.211 15.943,-2.211 8.985,0 16.269,1.238 16.269,2.761 h 0.039 v 0.844 c 0.006,0.027 0.025,0.057 0.025,0.086 H 9.12 v 6.568 10.116 L 9.12,0 Z"
             style="fill:#414142;fill-opacity:1;fill-rule:nonzero;stroke:none"
             id="path98" /></g><g
           id="g100"
           transform="translate(534.9873,407.7168)" /></g></g></g></svg>
