<?xml version="1.0" encoding="UTF-8"?>
<svg xmlns="http://www.w3.org/2000/svg" viewBox="420 380 500 560">
  <g transform="matrix(1.3333333,0,0,-1.3333333,0,1333.3333)">
    <g>
      <g transform="translate(574.1123,577.417)">
        <path d="m 0,0 c 0,32.859 -21.293,60.738 -50.438,69.805 0.456,-0.628 0.903,-1.284 1.348,-1.955 0.09,-0.138 0.18,-0.276 0.272,-0.416 0.455,-0.705 0.906,-1.427 1.347,-2.179 0.055,-0.092 0.108,-0.187 0.162,-0.278 0.411,-0.707 0.813,-1.435 1.209,-2.181 0.071,-0.132 0.141,-0.261 0.213,-0.395 0.418,-0.797 0.828,-1.62 1.231,-2.462 0.082,-0.172 0.164,-0.35 0.248,-0.524 0.408,-0.874 0.814,-1.763 1.207,-2.684 6.504,-15.236 10.084,-35.384 10.084,-56.731 0,-1.162 -0.018,-2.326 -0.049,-3.494 -0.012,-0.381 -0.031,-0.763 -0.045,-1.143 -0.029,-0.794 -0.06,-1.587 -0.103,-2.383 -0.024,-0.443 -0.053,-0.886 -0.082,-1.331 -0.045,-0.742 -0.098,-1.484 -0.155,-2.227 -0.037,-0.456 -0.076,-0.911 -0.113,-1.367 -0.068,-0.751 -0.139,-1.503 -0.219,-2.255 -0.043,-0.434 -0.088,-0.866 -0.135,-1.299 -0.091,-0.831 -0.195,-1.662 -0.298,-2.493 -0.043,-0.348 -0.084,-0.697 -0.131,-1.047 -0.157,-1.179 -0.323,-2.357 -0.504,-3.535 -0.016,-0.108 -0.035,-0.216 -0.053,-0.322 -0.166,-1.07 -0.34,-2.14 -0.525,-3.208 -0.069,-0.382 -0.139,-0.763 -0.207,-1.146 -0.143,-0.796 -0.287,-1.589 -0.44,-2.382 -0.086,-0.434 -0.172,-0.869 -0.256,-1.304 -0.15,-0.745 -0.298,-1.49 -0.457,-2.23 -0.093,-0.442 -0.183,-0.882 -0.281,-1.321 -0.164,-0.754 -0.33,-1.505 -0.502,-2.255 -0.094,-0.41 -0.185,-0.818 -0.281,-1.227 -0.199,-0.854 -0.406,-1.71 -0.615,-2.559 -0.071,-0.289 -0.139,-0.581 -0.211,-0.869 -0.285,-1.149 -0.58,-2.292 -0.883,-3.431 -0.039,-0.151 -0.08,-0.299 -0.121,-0.447 -0.26,-0.982 -0.528,-1.956 -0.799,-2.928 -0.098,-0.356 -0.201,-0.705 -0.303,-1.058 -0.217,-0.762 -0.433,-1.523 -0.654,-2.279 -0.121,-0.399 -0.236,-0.797 -0.357,-1.195 -0.213,-0.712 -0.428,-1.421 -0.647,-2.127 -0.119,-0.395 -0.24,-0.788 -0.365,-1.18 -0.225,-0.727 -0.455,-1.447 -0.686,-2.164 -0.113,-0.353 -0.226,-0.705 -0.34,-1.054 -0.273,-0.84 -0.55,-1.676 -0.828,-2.502 -0.07,-0.214 -0.14,-0.428 -0.211,-0.639 -0.353,-1.052 -0.713,-2.092 -1.072,-3.123 -0.062,-0.17 -0.123,-0.338 -0.182,-0.508 -0.298,-0.844 -0.593,-1.679 -0.894,-2.506 -0.115,-0.322 -0.233,-0.641 -0.35,-0.961 -0.246,-0.671 -0.488,-1.338 -0.734,-1.997 -0.129,-0.349 -0.26,-0.692 -0.389,-1.038 -0.238,-0.629 -0.474,-1.252 -0.711,-1.869 -0.129,-0.336 -0.258,-0.67 -0.386,-1.005 -0.247,-0.64 -0.495,-1.27 -0.743,-1.896 -0.113,-0.287 -0.224,-0.576 -0.337,-0.86 -0.299,-0.75 -0.594,-1.489 -0.891,-2.219 -0.061,-0.146 -0.119,-0.297 -0.178,-0.443 -0.359,-0.881 -0.715,-1.744 -1.068,-2.592 -0.078,-0.186 -0.153,-0.366 -0.233,-0.55 -0.269,-0.648 -0.539,-1.287 -0.804,-1.913 -0.121,-0.282 -0.239,-0.555 -0.358,-0.835 -0.224,-0.52 -0.445,-1.034 -0.666,-1.541 -0.125,-0.289 -0.25,-0.574 -0.375,-0.857 -0.209,-0.483 -0.418,-0.957 -0.625,-1.424 -0.123,-0.277 -0.246,-0.554 -0.367,-0.826 -0.062,-0.139 -0.125,-0.285 -0.189,-0.424 C -39.369,-75.701 0,-34.96 0,0" style="fill:#47c7ef;fill-opacity:1;fill-rule:nonzero;stroke:none"/>
      </g>
      <g transform="translate(502.4355,650.2725)">
        <path d="m 0,0 c -0.168,-0.017 -0.336,-0.017 -0.502,-0.04 -0.297,-0.041 -0.594,-0.112 -0.891,-0.181 -0.126,-0.031 -0.253,-0.047 -0.378,-0.081 -0.338,-0.091 -0.672,-0.211 -1.006,-0.338 -0.092,-0.033 -0.18,-0.055 -0.273,-0.09 -0.366,-0.149 -0.731,-0.327 -1.1,-0.515 -0.057,-0.029 -0.115,-0.051 -0.176,-0.082 -0.39,-0.208 -0.781,-0.444 -1.172,-0.697 -0.035,-0.023 -0.066,-0.039 -0.099,-0.061 -0.414,-0.271 -0.826,-0.57 -1.238,-0.894 -0.01,-0.007 -0.022,-0.014 -0.032,-0.022 -2.955,-2.329 -5.836,-5.938 -8.468,-10.647 -0.377,-0.673 -0.748,-1.369 -1.114,-2.086 v -0.002 c -0.361,-0.711 -0.717,-1.442 -1.066,-2.195 -0.004,-0.008 -0.01,-0.016 -0.014,-0.027 -0.338,-0.725 -0.668,-1.473 -0.994,-2.234 -0.018,-0.04 -0.033,-0.077 -0.051,-0.116 -0.31,-0.732 -0.613,-1.488 -0.914,-2.256 -0.029,-0.075 -0.058,-0.143 -0.088,-0.219 -0.287,-0.741 -0.568,-1.505 -0.843,-2.278 -0.038,-0.108 -0.081,-0.21 -0.118,-0.319 -0.267,-0.76 -0.527,-1.539 -0.783,-2.326 -0.043,-0.132 -0.088,-0.258 -0.131,-0.39 -0.244,-0.758 -0.478,-1.537 -0.709,-2.321 -0.05,-0.172 -0.105,-0.338 -0.158,-0.514 -0.226,-0.778 -0.441,-1.576 -0.656,-2.379 -0.053,-0.191 -0.106,-0.374 -0.156,-0.566 -0.202,-0.764 -0.393,-1.549 -0.582,-2.337 -0.059,-0.241 -0.121,-0.476 -0.18,-0.72 -0.182,-0.779 -0.354,-1.577 -0.525,-2.376 -0.057,-0.265 -0.118,-0.519 -0.174,-0.785 -0.16,-0.77 -0.309,-1.559 -0.459,-2.347 -0.059,-0.31 -0.123,-0.61 -0.182,-0.921 -0.129,-0.708 -0.248,-1.434 -0.367,-2.155 -0.068,-0.407 -0.143,-0.803 -0.209,-1.214 -0.109,-0.698 -0.209,-1.412 -0.311,-2.121 -0.064,-0.449 -0.136,-0.888 -0.197,-1.344 -0.098,-0.714 -0.182,-1.445 -0.269,-2.172 -0.057,-0.462 -0.118,-0.918 -0.17,-1.386 -0.08,-0.716 -0.147,-1.447 -0.219,-2.174 -0.047,-0.493 -0.104,-0.978 -0.149,-1.476 -0.064,-0.743 -0.117,-1.501 -0.173,-2.253 -0.037,-0.496 -0.082,-0.986 -0.114,-1.486 -0.052,-0.749 -0.088,-1.51 -0.127,-2.27 -0.027,-0.519 -0.062,-1.03 -0.086,-1.553 -0.039,-0.889 -0.062,-1.792 -0.087,-2.693 -0.012,-0.405 -0.032,-0.805 -0.041,-1.213 -0.028,-1.314 -0.043,-2.644 -0.043,-3.983 0,-1.714 0.035,-3.448 0.103,-5.197 0.024,-0.584 0.072,-1.18 0.102,-1.769 0.06,-1.173 0.117,-2.345 0.209,-3.534 0.054,-0.716 0.136,-1.446 0.203,-2.169 0.097,-1.079 0.187,-2.151 0.31,-3.241 0.086,-0.786 0.203,-1.585 0.305,-2.375 0.133,-1.046 0.256,-2.086 0.412,-3.142 0.123,-0.829 0.272,-1.676 0.408,-2.512 0.168,-1.035 0.326,-2.064 0.516,-3.108 0.154,-0.863 0.336,-1.737 0.506,-2.607 0.201,-1.037 0.398,-2.07 0.619,-3.12 0.189,-0.892 0.404,-1.796 0.607,-2.694 0.237,-1.042 0.465,-2.076 0.721,-3.128 0.225,-0.919 0.473,-1.854 0.713,-2.782 0.268,-1.046 0.531,-2.088 0.82,-3.143 0.256,-0.943 0.537,-1.898 0.811,-2.849 0.304,-1.055 0.603,-2.111 0.926,-3.176 0.289,-0.964 0.603,-1.939 0.908,-2.91 0.338,-1.069 0.672,-2.137 1.029,-3.215 0.322,-0.984 0.668,-1.977 1.01,-2.968 0.369,-1.081 0.74,-2.162 1.129,-3.252 0.357,-1.003 0.734,-2.013 1.107,-3.023 0.408,-1.096 0.813,-2.191 1.233,-3.294 0.392,-1.019 0.8,-2.046 1.207,-3.072 0.439,-1.11 0.88,-2.221 1.336,-3.341 0.423,-1.034 0.865,-2.078 1.304,-3.12 0.473,-1.124 0.948,-2.25 1.442,-3.383 0.455,-1.051 0.927,-2.111 1.4,-3.168 0.51,-1.141 1.018,-2.282 1.545,-3.43 0.486,-1.066 0.99,-2.137 1.492,-3.208 0.336,-0.716 0.68,-1.433 1.024,-2.151 h 6.302 c 0.014,0.033 0.027,0.063 0.047,0.097 0.08,0.18 0.174,0.373 0.259,0.561 0.161,0.338 0.319,0.675 0.485,1.039 0.103,0.213 0.207,0.443 0.31,0.666 0.166,0.356 0.332,0.715 0.502,1.091 0.114,0.247 0.233,0.508 0.348,0.763 0.168,0.374 0.338,0.751 0.516,1.144 0.127,0.284 0.259,0.58 0.388,0.873 0.17,0.382 0.342,0.766 0.516,1.163 0.144,0.325 0.291,0.659 0.437,0.994 0.17,0.392 0.344,0.786 0.518,1.189 0.152,0.352 0.306,0.713 0.464,1.075 0.176,0.412 0.353,0.832 0.533,1.256 0.156,0.375 0.318,0.753 0.477,1.135 0.183,0.43 0.363,0.868 0.547,1.309 0.166,0.399 0.332,0.801 0.498,1.209 0.185,0.451 0.369,0.909 0.558,1.371 0.166,0.413 0.334,0.827 0.502,1.25 0.192,0.475 0.383,0.96 0.574,1.443 0.17,0.432 0.338,0.86 0.508,1.296 0.195,0.499 0.389,1.008 0.586,1.514 0.168,0.441 0.336,0.878 0.508,1.326 0.197,0.523 0.396,1.058 0.596,1.59 0.168,0.45 0.334,0.894 0.502,1.352 0.205,0.55 0.408,1.114 0.609,1.671 0.164,0.455 0.328,0.902 0.492,1.359 0.219,0.613 0.436,1.239 0.652,1.863 0.145,0.416 0.293,0.826 0.438,1.246 0.303,0.878 0.603,1.768 0.904,2.663 0.1,0.298 0.199,0.593 0.297,0.895 0.315,0.945 0.625,1.899 0.934,2.864 0.131,0.404 0.256,0.817 0.384,1.227 0.221,0.698 0.44,1.392 0.655,2.098 0.144,0.469 0.283,0.945 0.426,1.418 0.195,0.655 0.392,1.306 0.584,1.966 0.146,0.5 0.289,1.009 0.431,1.514 0.186,0.638 0.367,1.277 0.545,1.921 0.145,0.523 0.285,1.047 0.426,1.573 0.174,0.636 0.344,1.272 0.51,1.913 0.138,0.534 0.275,1.073 0.41,1.609 0.162,0.638 0.322,1.277 0.478,1.918 0.135,0.542 0.262,1.087 0.391,1.632 0.152,0.643 0.303,1.285 0.449,1.93 0.125,0.55 0.244,1.099 0.365,1.653 0.141,0.643 0.28,1.287 0.414,1.934 0.116,0.554 0.229,1.108 0.338,1.666 0.131,0.647 0.256,1.299 0.379,1.947 0.104,0.555 0.209,1.11 0.307,1.667 0.117,0.656 0.23,1.313 0.342,1.971 0.093,0.549 0.185,1.099 0.271,1.649 0.106,0.666 0.205,1.332 0.303,1.998 0.076,0.545 0.158,1.089 0.23,1.631 0.092,0.673 0.176,1.347 0.258,2.021 0.067,0.536 0.135,1.073 0.194,1.609 0.078,0.686 0.142,1.372 0.211,2.058 0.052,0.52 0.107,1.041 0.15,1.559 0.06,0.715 0.111,1.429 0.164,2.142 0.031,0.486 0.072,0.974 0.102,1.46 0.048,0.796 0.08,1.587 0.111,2.378 0.015,0.398 0.039,0.8 0.055,1.197 0.035,1.19 0.054,2.376 0.054,3.555 0,42.906 -15.054,72.86 -28.565,72.907 -0.018,0 -0.041,0.001 -0.065,0.001 C 0.52,0.052 0.26,0.021 0,0" style="fill:#76cfe5;fill-opacity:1;fill-rule:nonzero;stroke:none"/>
      </g>
      <g transform="translate(517.5869,485.6289)">
        <path d="m 0,0 c 0.064,0.139 0.127,0.285 0.189,0.424 0.122,0.272 0.245,0.549 0.368,0.826 0.207,0.467 0.416,0.941 0.625,1.424 0.125,0.283 0.25,0.568 0.375,0.857 0.22,0.507 0.441,1.021 0.666,1.541 0.119,0.281 0.236,0.553 0.357,0.835 0.266,0.626 0.535,1.265 0.805,1.913 0.08,0.184 0.154,0.364 0.232,0.55 0.354,0.848 0.709,1.711 1.069,2.592 0.058,0.146 0.117,0.297 0.177,0.443 0.297,0.73 0.592,1.469 0.891,2.219 0.113,0.284 0.225,0.573 0.338,0.86 0.248,0.626 0.496,1.256 0.742,1.896 0.129,0.335 0.258,0.669 0.387,1.005 0.236,0.617 0.472,1.24 0.711,1.869 0.129,0.346 0.259,0.689 0.388,1.038 0.246,0.659 0.489,1.326 0.735,1.997 0.117,0.32 0.234,0.639 0.349,0.961 0.301,0.827 0.596,1.662 0.895,2.506 0.058,0.17 0.119,0.338 0.181,0.508 0.36,1.031 0.719,2.071 1.073,3.123 0.07,0.211 0.14,0.426 0.211,0.639 0.277,0.827 0.554,1.662 0.828,2.502 0.113,0.349 0.226,0.701 0.34,1.054 0.23,0.717 0.461,1.438 0.685,2.164 0.125,0.392 0.246,0.785 0.365,1.18 0.219,0.706 0.434,1.415 0.647,2.127 0.121,0.398 0.236,0.796 0.357,1.195 0.221,0.756 0.438,1.517 0.655,2.279 0.101,0.353 0.205,0.702 0.302,1.058 0.272,0.972 0.539,1.946 0.799,2.928 0.041,0.148 0.082,0.297 0.121,0.447 0.303,1.139 0.598,2.282 0.883,3.431 0.072,0.288 0.141,0.58 0.211,0.869 0.209,0.849 0.416,1.705 0.615,2.559 0.096,0.41 0.188,0.817 0.282,1.227 0.171,0.75 0.337,1.501 0.501,2.255 0.098,0.439 0.188,0.879 0.282,1.321 0.158,0.74 0.306,1.485 0.457,2.231 0.084,0.434 0.17,0.869 0.256,1.303 0.152,0.793 0.296,1.586 0.439,2.382 0.068,0.383 0.139,0.764 0.207,1.147 0.186,1.067 0.359,2.137 0.525,3.207 0.018,0.106 0.038,0.214 0.053,0.322 0.182,1.178 0.348,2.356 0.504,3.535 0.047,0.35 0.088,0.699 0.131,1.047 0.104,0.831 0.207,1.662 0.299,2.493 0.047,0.433 0.092,0.865 0.135,1.299 0.08,0.752 0.15,1.504 0.218,2.255 0.037,0.456 0.077,0.911 0.114,1.367 0.056,0.743 0.109,1.485 0.154,2.228 0.029,0.444 0.059,0.887 0.082,1.331 0.043,0.795 0.074,1.588 0.103,2.382 0.014,0.38 0.034,0.762 0.045,1.143 0.032,1.168 0.049,2.332 0.049,3.494 0,21.347 -3.58,41.495 -10.084,56.732 -0.392,0.92 -0.799,1.809 -1.207,2.683 -0.084,0.174 -0.166,0.352 -0.248,0.525 -0.402,0.841 -0.812,1.664 -1.23,2.461 -0.073,0.134 -0.143,0.263 -0.213,0.395 -0.397,0.746 -0.799,1.474 -1.209,2.181 -0.055,0.091 -0.108,0.186 -0.162,0.278 -0.442,0.752 -0.893,1.474 -1.348,2.179 -0.092,0.14 -0.182,0.278 -0.271,0.416 -0.446,0.671 -0.893,1.327 -1.348,1.955 C 35.232,152.526 56.525,124.647 56.525,91.788 56.525,56.828 17.156,16.087 0,0" style="fill:#414142;fill-opacity:1;fill-rule:nonzero;stroke:none"/>
      </g>
      <g transform="translate(510.4766,475.2773)">
        <path d="m 0,0 v -14.51 c -2.17,0.182 -4.605,0.285 -7.188,0.285 -2.585,0 -5.019,-0.103 -7.19,-0.285 V 0 h -9.12 v -16.986 -0.721 c -0.023,-0.061 -0.054,-0.123 -0.054,-0.184 v -0.002 h -0.037 v -16.683 h 0.029 V -34.6 h 0.014 c 0.009,-0.187 0.129,-0.373 0.351,-0.55 1.504,-1.26 8.069,-2.211 15.943,-2.211 8.985,0 16.269,1.238 16.269,2.761 h 0.039 v 0.844 c 0.006,0.027 0.025,0.057 0.025,0.086 H 9.12 v 6.568 10.116 L 9.12,0 Z" style="fill:#414142;fill-opacity:1;fill-rule:nonzero;stroke:none"/>
      </g>
    </g>
  </g>
</svg>
